<!--
  AI for Learning Experience Design — Chapter 13, Figure 05
  The skeleton beneath the named frameworks
  Generated 2026-06-07 · CAJAL SVG Generator · Brutalist D3 SVG style
-->
<svg viewBox="0 0 700 420" xmlns="http://www.w3.org/2000/svg" role="img" aria-labelledby="fig-title-13-05">
  <title id="fig-title-13-05">The skeleton beneath the named frameworks — 13-ai-literacy-developmental-calibration</title>
  <desc>Three framework strata with visibly different internal anatomies sit above one shared four-segment foundation: knowledge, use, critique, creation. Every framework connects to all four segments, but the lines reaching critique are dotted — the dimension every framework names and every interface underserves.</desc>
  <metadata><cajal:figure xmlns:cajal="https://bearbrown.ai/cajal/1.0" book="AI for Learning Experience Design" book-slug="ai-for-learning-experience-design" chapter="13-ai-literacy-developmental-calibration" figure-number="05" figure-title="The skeleton beneath the named frameworks" figure-slug="framework-skeleton" figure-type="layered taxonomy schematic" priority="Supplementary" author="Nik Bear Brown" date-generated="2026-06-07" source-file="pantry/13-ai-literacy-developmental-calibration-cajal.md"/></metadata>

  <text x="32" y="40" font-family="'EB Garamond', 'Garamond', Georgia, serif" font-size="14" fill="#2a1a0e">The skeleton beneath the named frameworks</text>

  <text x="70" y="62" font-family="'Inter', -apple-system, 'Helvetica Neue', sans-serif" font-size="10" fill="#787878">the replaceable layer</text>

  <!-- three framework strata -->
  <g fill="#FFFFFF" stroke="#D4D4D4" stroke-width="1">
    <rect x="70" y="68" width="180" height="64" rx="0"/>
    <rect x="270" y="68" width="180" height="64" rx="0"/>
    <rect x="470" y="68" width="180" height="64" rx="0"/>
  </g>
  <g text-anchor="middle" font-family="'Inter', -apple-system, 'Helvetica Neue', sans-serif" font-size="12" fill="#2a1a0e">
    <text x="160" y="90">Long–Magerko</text>
    <text x="360" y="90">UNESCO AI competency</text>
    <text x="560" y="90">OECD AILit</text>
  </g>
  <!-- interior anatomies: 5 / 4 / 4 cells -->
  <rect x="82" y="100" width="156" height="24" fill="#F5F5F5" stroke="#D4D4D4" stroke-width="1"/>
  <g stroke="#D4D4D4" stroke-width="1">
    <line x1="113.2" y1="100" x2="113.2" y2="124"/>
    <line x1="144.4" y1="100" x2="144.4" y2="124"/>
    <line x1="175.6" y1="100" x2="175.6" y2="124"/>
    <line x1="206.8" y1="100" x2="206.8" y2="124"/>
  </g>
  <rect x="282" y="100" width="156" height="24" fill="#F5F5F5" stroke="#D4D4D4" stroke-width="1"/>
  <g stroke="#D4D4D4" stroke-width="1">
    <line x1="321" y1="100" x2="321" y2="124"/>
    <line x1="360" y1="100" x2="360" y2="124"/>
    <line x1="399" y1="100" x2="399" y2="124"/>
  </g>
  <rect x="482" y="100" width="156" height="24" fill="#F5F5F5" stroke="#D4D4D4" stroke-width="1"/>
  <g stroke="#D4D4D4" stroke-width="1">
    <line x1="521" y1="100" x2="521" y2="124"/>
    <line x1="560" y1="100" x2="560" y2="124"/>
    <line x1="599" y1="100" x2="599" y2="124"/>
  </g>

  <!-- connector fans: solid to knowledge/use/creation, dotted to critique -->
  <g stroke="#D4D4D4" stroke-width="0.75">
    <line x1="100" y1="132" x2="170" y2="232"/>
    <line x1="145" y1="132" x2="290" y2="232"/>
    <line x1="235" y1="132" x2="530" y2="232"/>
    <line x1="300" y1="132" x2="170" y2="232"/>
    <line x1="345" y1="132" x2="290" y2="232"/>
    <line x1="435" y1="132" x2="530" y2="232"/>
    <line x1="500" y1="132" x2="170" y2="232"/>
    <line x1="545" y1="132" x2="290" y2="232"/>
    <line x1="635" y1="132" x2="530" y2="232"/>
  </g>
  <g stroke="#787878" stroke-width="0.75" stroke-dasharray="2 3">
    <line x1="190" y1="132" x2="410" y2="224"/>
    <line x1="390" y1="132" x2="410" y2="224"/>
    <line x1="590" y1="132" x2="410" y2="224"/>
  </g>

  <text x="110" y="226" font-family="'Inter', -apple-system, 'Helvetica Neue', sans-serif" font-size="10" fill="#787878">the stable core</text>

  <!-- foundation bar: four segments; critique raised and red-bordered -->
  <rect x="110" y="232" width="120" height="48" rx="0" fill="#787878"/>
  <rect x="230" y="232" width="120" height="48" rx="0" fill="#ADADAD"/>
  <rect x="470" y="232" width="120" height="48" rx="0" fill="#D4D4D4"/>
  <rect x="350" y="224" width="120" height="56" rx="0" fill="#FFFFFF" stroke="#C8102E" stroke-width="2"/>
  <text x="170" y="260" text-anchor="middle" font-family="'Inter', -apple-system, 'Helvetica Neue', sans-serif" font-size="12" fill="#FFFFFF">knowledge</text>
  <text x="290" y="260" text-anchor="middle" font-family="'Inter', -apple-system, 'Helvetica Neue', sans-serif" font-size="12" fill="#2a1a0e">use / skill</text>
  <text x="410" y="256" text-anchor="middle" font-family="'Inter', -apple-system, 'Helvetica Neue', sans-serif" font-size="12" fill="#C8102E">critique</text>
  <text x="530" y="260" text-anchor="middle" font-family="'Inter', -apple-system, 'Helvetica Neue', sans-serif" font-size="12" fill="#2a1a0e">creation / design</text>
  <text x="410" y="298" text-anchor="middle" font-family="'Inter', -apple-system, 'Helvetica Neue', sans-serif" font-size="10" fill="#787878">named by all, served by none — dotted linkage</text>

  <text x="32" y="400" font-family="'Inter', -apple-system, 'Helvetica Neue', sans-serif" font-size="11" fill="#545454">The four-part skeleton and the unserved-critique claim are the book's synthesis, not the frameworks' own.</text>
</svg>
